<?xml version="1.0" standalone="no"?>
<!DOCTYPE svg PUBLIC "-//W3C//DTD SVG 20010904//EN"
 "http://www.w3.org/TR/2001/REC-SVG-20010904/DTD/svg10.dtd">
<svg version="1.0" xmlns="http://www.w3.org/2000/svg"
 width="260.000000pt" height="260.000000pt" viewBox="0 0 260.000000 260.000000"
 preserveAspectRatio="xMidYMid meet">
<metadata>
Created by potrace 1.14, written by Peter Selinger 2001-2017
</metadata>
<g transform="translate(0.000000,260.000000) scale(0.100000,-0.100000)"
fill="#000000" stroke="none">
<path d="M1140 2588 c-147 -17 -316 -66 -445 -131 -157 -78 -343 -235 -448
-377 -26 -36 -51 -70 -56 -76 -17 -21 -131 -258 -126 -262 2 -3 -1 -14 -7 -26
-6 -11 -15 -36 -20 -56 -5 -19 -10 -42 -12 -50 -21 -78 -25 -131 -25 -300 0
-140 4 -215 15 -265 90 -402 352 -735 709 -899 145 -67 227 -92 380 -116 61
-9 329 -6 375 4 14 3 59 13 100 22 216 47 453 183 621 356 76 77 176 214 218
296 186 367 194 783 21 1148 -26 55 -71 136 -100 179 -54 80 -200 235 -280
296 -144 111 -347 204 -510 235 -14 2 -31 7 -38 9 -46 16 -273 24 -372 13z"/>
</g>
</svg>
